<mxfile host="app.diagrams.net" modified="2023-09-28T16:01:34.234Z" agent="Mozilla/5.0 (Windows NT 10.0; Win64; x64) AppleWebKit/537.36 (KHTML, like Gecko) Chrome/117.0.0.0 Safari/537.36" etag="Uj3lzJ3Y4lRD_4Y3C6rq" version="22.0.0" type="device">
  <diagram name="Page-1" id="e7e014a7-5840-1c2e-5031-d8a46d1fe8dd">
    <mxGraphModel dx="1173" dy="608" grid="0" gridSize="10" guides="1" tooltips="1" connect="1" arrows="1" fold="1" page="1" pageScale="1" pageWidth="1169" pageHeight="826" background="#FFFFFF" math="0" shadow="0">
      <root>
        <mxCell id="0" />
        <mxCell id="1" parent="0" />
        <mxCell id="5HN4UKg1Xnu_4getq7X6-49" value="Pharmacy Shop Management System" style="swimlane;childLayout=stackLayout;resizeParent=1;resizeParentMax=0;startSize=20;html=1;" parent="1" vertex="1">
          <mxGeometry x="220" y="120" width="1020" height="500" as="geometry" />
        </mxCell>
        <mxCell id="5HN4UKg1Xnu_4getq7X6-50" value="User" style="swimlane;startSize=20;html=1;" parent="5HN4UKg1Xnu_4getq7X6-49" vertex="1">
          <mxGeometry y="20" width="190" height="480" as="geometry" />
        </mxCell>
        <mxCell id="m1X64XVrmf0Yqg_bkQr0-19" style="edgeStyle=orthogonalEdgeStyle;rounded=0;orthogonalLoop=1;jettySize=auto;html=1;exitX=0.508;exitY=0.866;exitDx=0;exitDy=0;entryX=0.5;entryY=0;entryDx=0;entryDy=0;exitPerimeter=0;" parent="5HN4UKg1Xnu_4getq7X6-50" source="5" target="m1X64XVrmf0Yqg_bkQr0-6" edge="1">
          <mxGeometry relative="1" as="geometry" />
        </mxCell>
        <mxCell id="5" value="" style="ellipse;shape=startState;fillColor=#000000;strokeColor=none;" parent="5HN4UKg1Xnu_4getq7X6-50" vertex="1">
          <mxGeometry x="80" y="40" width="30" height="30" as="geometry" />
        </mxCell>
        <mxCell id="m1X64XVrmf0Yqg_bkQr0-6" value="Click Dashboard" style="rounded=1;whiteSpace=wrap;html=1;" parent="5HN4UKg1Xnu_4getq7X6-50" vertex="1">
          <mxGeometry x="35" y="110" width="120" height="40" as="geometry" />
        </mxCell>
        <mxCell id="5HN4UKg1Xnu_4getq7X6-51" value="System" style="swimlane;startSize=20;html=1;" parent="5HN4UKg1Xnu_4getq7X6-49" vertex="1">
          <mxGeometry x="190" y="20" width="830" height="480" as="geometry" />
        </mxCell>
        <mxCell id="wwYUsuGxup872Wy1VG4g-5" value="" style="line;strokeWidth=5;rotatable=0;dashed=0;labelPosition=right;align=left;verticalAlign=middle;spacingTop=0;spacingLeft=6;points=[];portConstraint=eastwest;" vertex="1" parent="5HN4UKg1Xnu_4getq7X6-51">
          <mxGeometry x="50" y="150" width="720" height="10" as="geometry" />
        </mxCell>
        <mxCell id="wwYUsuGxup872Wy1VG4g-6" style="edgeStyle=orthogonalEdgeStyle;rounded=0;orthogonalLoop=1;jettySize=auto;html=1;exitX=0.508;exitY=0.866;exitDx=0;exitDy=0;entryX=0.5;entryY=0;entryDx=0;entryDy=0;exitPerimeter=0;" edge="1" parent="5HN4UKg1Xnu_4getq7X6-51">
          <mxGeometry relative="1" as="geometry">
            <mxPoint x="72" y="156" as="sourcePoint" />
            <mxPoint x="72" y="200" as="targetPoint" />
            <Array as="points">
              <mxPoint x="72" y="170" />
              <mxPoint x="72" y="170" />
            </Array>
          </mxGeometry>
        </mxCell>
        <mxCell id="wwYUsuGxup872Wy1VG4g-7" value="Calculate Number of Customers" style="rounded=1;whiteSpace=wrap;html=1;" vertex="1" parent="5HN4UKg1Xnu_4getq7X6-51">
          <mxGeometry x="10" y="200" width="120" height="40" as="geometry" />
        </mxCell>
        <mxCell id="wwYUsuGxup872Wy1VG4g-53" value="" style="ellipse;html=1;shape=endState;fillColor=#000000;strokeColor=#030303;" vertex="1" parent="5HN4UKg1Xnu_4getq7X6-51">
          <mxGeometry x="378" y="414" width="30" height="30" as="geometry" />
        </mxCell>
        <mxCell id="m1X64XVrmf0Yqg_bkQr0-15" style="edgeStyle=orthogonalEdgeStyle;rounded=0;orthogonalLoop=1;jettySize=auto;html=1;exitX=1;exitY=0.5;exitDx=0;exitDy=0;" parent="5HN4UKg1Xnu_4getq7X6-49" source="m1X64XVrmf0Yqg_bkQr0-6" edge="1">
          <mxGeometry relative="1" as="geometry">
            <mxPoint x="590" y="174" as="targetPoint" />
            <Array as="points">
              <mxPoint x="590" y="150" />
            </Array>
          </mxGeometry>
        </mxCell>
        <mxCell id="wwYUsuGxup872Wy1VG4g-9" style="edgeStyle=orthogonalEdgeStyle;rounded=0;orthogonalLoop=1;jettySize=auto;html=1;exitX=0.508;exitY=0.866;exitDx=0;exitDy=0;entryX=0.5;entryY=0;entryDx=0;entryDy=0;exitPerimeter=0;" edge="1" parent="1">
          <mxGeometry relative="1" as="geometry">
            <mxPoint x="610" y="296" as="sourcePoint" />
            <mxPoint x="610" y="340" as="targetPoint" />
            <Array as="points">
              <mxPoint x="610" y="310" />
              <mxPoint x="610" y="310" />
            </Array>
          </mxGeometry>
        </mxCell>
        <mxCell id="wwYUsuGxup872Wy1VG4g-10" value="Calculate Number of Medicine orders" style="rounded=1;whiteSpace=wrap;html=1;" vertex="1" parent="1">
          <mxGeometry x="548" y="340" width="120" height="40" as="geometry" />
        </mxCell>
        <mxCell id="wwYUsuGxup872Wy1VG4g-11" style="edgeStyle=orthogonalEdgeStyle;rounded=0;orthogonalLoop=1;jettySize=auto;html=1;exitX=0.508;exitY=0.866;exitDx=0;exitDy=0;entryX=0.5;entryY=0;entryDx=0;entryDy=0;exitPerimeter=0;" edge="1" parent="1">
          <mxGeometry relative="1" as="geometry">
            <mxPoint x="740" y="296" as="sourcePoint" />
            <mxPoint x="740" y="340" as="targetPoint" />
            <Array as="points">
              <mxPoint x="740" y="310" />
              <mxPoint x="740" y="310" />
            </Array>
          </mxGeometry>
        </mxCell>
        <mxCell id="wwYUsuGxup872Wy1VG4g-12" value="Calculate Today Income" style="rounded=1;whiteSpace=wrap;html=1;" vertex="1" parent="1">
          <mxGeometry x="678" y="340" width="120" height="40" as="geometry" />
        </mxCell>
        <mxCell id="wwYUsuGxup872Wy1VG4g-14" value="Calculate Total Income" style="rounded=1;whiteSpace=wrap;html=1;" vertex="1" parent="1">
          <mxGeometry x="809" y="340" width="120" height="40" as="geometry" />
        </mxCell>
        <mxCell id="wwYUsuGxup872Wy1VG4g-17" style="edgeStyle=orthogonalEdgeStyle;rounded=0;orthogonalLoop=1;jettySize=auto;html=1;entryX=0.5;entryY=0;entryDx=0;entryDy=0;exitX=0.79;exitY=0.767;exitDx=0;exitDy=0;exitPerimeter=0;" edge="1" parent="1" target="wwYUsuGxup872Wy1VG4g-18">
          <mxGeometry relative="1" as="geometry">
            <mxPoint x="1000.6000000000001" y="297.66999999999996" as="sourcePoint" />
            <mxPoint x="648" y="340" as="targetPoint" />
            <Array as="points">
              <mxPoint x="1001" y="320" />
              <mxPoint x="1001" y="320" />
            </Array>
          </mxGeometry>
        </mxCell>
        <mxCell id="wwYUsuGxup872Wy1VG4g-18" value="Develop Income Chart" style="rounded=1;whiteSpace=wrap;html=1;" vertex="1" parent="1">
          <mxGeometry x="940" y="340" width="120" height="40" as="geometry" />
        </mxCell>
        <mxCell id="wwYUsuGxup872Wy1VG4g-19" style="edgeStyle=orthogonalEdgeStyle;rounded=0;orthogonalLoop=1;jettySize=auto;html=1;exitX=0.923;exitY=0.855;exitDx=0;exitDy=0;entryX=0.5;entryY=0;entryDx=0;entryDy=0;exitPerimeter=0;" edge="1" parent="1" target="wwYUsuGxup872Wy1VG4g-20">
          <mxGeometry relative="1" as="geometry">
            <mxPoint x="1130.02" y="298.54999999999995" as="sourcePoint" />
            <mxPoint x="791" y="340" as="targetPoint" />
            <Array as="points">
              <mxPoint x="1130" y="296" />
              <mxPoint x="1131" y="296" />
            </Array>
          </mxGeometry>
        </mxCell>
        <mxCell id="wwYUsuGxup872Wy1VG4g-20" value="Develop Customer Chart" style="rounded=1;whiteSpace=wrap;html=1;" vertex="1" parent="1">
          <mxGeometry x="1071" y="340" width="120" height="40" as="geometry" />
        </mxCell>
        <mxCell id="wwYUsuGxup872Wy1VG4g-31" style="edgeStyle=orthogonalEdgeStyle;rounded=0;orthogonalLoop=1;jettySize=auto;html=1;exitX=0.508;exitY=0.866;exitDx=0;exitDy=0;entryX=0.5;entryY=0;entryDx=0;entryDy=0;exitPerimeter=0;" edge="1" parent="1">
          <mxGeometry relative="1" as="geometry">
            <mxPoint x="869" y="296" as="sourcePoint" />
            <mxPoint x="869" y="340" as="targetPoint" />
            <Array as="points">
              <mxPoint x="869" y="310" />
              <mxPoint x="869" y="310" />
            </Array>
          </mxGeometry>
        </mxCell>
        <mxCell id="wwYUsuGxup872Wy1VG4g-32" style="edgeStyle=orthogonalEdgeStyle;rounded=0;orthogonalLoop=1;jettySize=auto;html=1;exitX=0.508;exitY=0.866;exitDx=0;exitDy=0;entryX=0.5;entryY=0;entryDx=0;entryDy=0;exitPerimeter=0;" edge="1" parent="1">
          <mxGeometry relative="1" as="geometry">
            <mxPoint x="482" y="380" as="sourcePoint" />
            <mxPoint x="482" y="424" as="targetPoint" />
            <Array as="points">
              <mxPoint x="482" y="394" />
              <mxPoint x="482" y="394" />
            </Array>
          </mxGeometry>
        </mxCell>
        <mxCell id="wwYUsuGxup872Wy1VG4g-33" value="Display Number of Customers" style="rounded=1;whiteSpace=wrap;html=1;" vertex="1" parent="1">
          <mxGeometry x="420" y="424" width="120" height="40" as="geometry" />
        </mxCell>
        <mxCell id="wwYUsuGxup872Wy1VG4g-34" style="edgeStyle=orthogonalEdgeStyle;rounded=0;orthogonalLoop=1;jettySize=auto;html=1;exitX=0.508;exitY=0.866;exitDx=0;exitDy=0;entryX=0.5;entryY=0;entryDx=0;entryDy=0;exitPerimeter=0;" edge="1" parent="1">
          <mxGeometry relative="1" as="geometry">
            <mxPoint x="610" y="380" as="sourcePoint" />
            <mxPoint x="610" y="424" as="targetPoint" />
            <Array as="points">
              <mxPoint x="610" y="394" />
              <mxPoint x="610" y="394" />
            </Array>
          </mxGeometry>
        </mxCell>
        <mxCell id="wwYUsuGxup872Wy1VG4g-35" value="Display&amp;nbsp;Number of Medicine orders" style="rounded=1;whiteSpace=wrap;html=1;" vertex="1" parent="1">
          <mxGeometry x="548" y="424" width="120" height="40" as="geometry" />
        </mxCell>
        <mxCell id="wwYUsuGxup872Wy1VG4g-36" style="edgeStyle=orthogonalEdgeStyle;rounded=0;orthogonalLoop=1;jettySize=auto;html=1;exitX=0.508;exitY=0.866;exitDx=0;exitDy=0;entryX=0.5;entryY=0;entryDx=0;entryDy=0;exitPerimeter=0;" edge="1" parent="1">
          <mxGeometry relative="1" as="geometry">
            <mxPoint x="740" y="380" as="sourcePoint" />
            <mxPoint x="740" y="424" as="targetPoint" />
            <Array as="points">
              <mxPoint x="740" y="394" />
              <mxPoint x="740" y="394" />
            </Array>
          </mxGeometry>
        </mxCell>
        <mxCell id="wwYUsuGxup872Wy1VG4g-37" value="Display&amp;nbsp;Today Income" style="rounded=1;whiteSpace=wrap;html=1;" vertex="1" parent="1">
          <mxGeometry x="678" y="424" width="120" height="40" as="geometry" />
        </mxCell>
        <mxCell id="wwYUsuGxup872Wy1VG4g-38" value="Display&amp;nbsp;Total Income" style="rounded=1;whiteSpace=wrap;html=1;" vertex="1" parent="1">
          <mxGeometry x="809" y="424" width="120" height="40" as="geometry" />
        </mxCell>
        <mxCell id="wwYUsuGxup872Wy1VG4g-39" style="edgeStyle=orthogonalEdgeStyle;rounded=0;orthogonalLoop=1;jettySize=auto;html=1;entryX=0.5;entryY=0;entryDx=0;entryDy=0;exitX=0.79;exitY=0.767;exitDx=0;exitDy=0;exitPerimeter=0;" edge="1" parent="1" target="wwYUsuGxup872Wy1VG4g-40">
          <mxGeometry relative="1" as="geometry">
            <mxPoint x="1000.6000000000001" y="381.66999999999996" as="sourcePoint" />
            <mxPoint x="648" y="424" as="targetPoint" />
            <Array as="points">
              <mxPoint x="1001" y="404" />
              <mxPoint x="1001" y="404" />
            </Array>
          </mxGeometry>
        </mxCell>
        <mxCell id="wwYUsuGxup872Wy1VG4g-40" value="Display Income Chart" style="rounded=1;whiteSpace=wrap;html=1;" vertex="1" parent="1">
          <mxGeometry x="940" y="424" width="120" height="40" as="geometry" />
        </mxCell>
        <mxCell id="wwYUsuGxup872Wy1VG4g-41" style="edgeStyle=orthogonalEdgeStyle;rounded=0;orthogonalLoop=1;jettySize=auto;html=1;exitX=0.923;exitY=0.855;exitDx=0;exitDy=0;entryX=0.5;entryY=0;entryDx=0;entryDy=0;exitPerimeter=0;" edge="1" parent="1" target="wwYUsuGxup872Wy1VG4g-42">
          <mxGeometry relative="1" as="geometry">
            <mxPoint x="1130.02" y="382.54999999999995" as="sourcePoint" />
            <mxPoint x="791" y="424" as="targetPoint" />
            <Array as="points">
              <mxPoint x="1130" y="380" />
              <mxPoint x="1131" y="380" />
            </Array>
          </mxGeometry>
        </mxCell>
        <mxCell id="wwYUsuGxup872Wy1VG4g-42" value="Display Customer Chart" style="rounded=1;whiteSpace=wrap;html=1;" vertex="1" parent="1">
          <mxGeometry x="1071" y="424" width="120" height="40" as="geometry" />
        </mxCell>
        <mxCell id="wwYUsuGxup872Wy1VG4g-43" style="edgeStyle=orthogonalEdgeStyle;rounded=0;orthogonalLoop=1;jettySize=auto;html=1;exitX=0.508;exitY=0.866;exitDx=0;exitDy=0;entryX=0.5;entryY=0;entryDx=0;entryDy=0;exitPerimeter=0;" edge="1" parent="1">
          <mxGeometry relative="1" as="geometry">
            <mxPoint x="869" y="380" as="sourcePoint" />
            <mxPoint x="869" y="424" as="targetPoint" />
            <Array as="points">
              <mxPoint x="869" y="394" />
              <mxPoint x="869" y="394" />
            </Array>
          </mxGeometry>
        </mxCell>
        <mxCell id="wwYUsuGxup872Wy1VG4g-44" value="" style="line;strokeWidth=5;rotatable=0;dashed=0;labelPosition=right;align=left;verticalAlign=middle;spacingTop=0;spacingLeft=6;points=[];portConstraint=eastwest;" vertex="1" parent="1">
          <mxGeometry x="460" y="505" width="720" height="10" as="geometry" />
        </mxCell>
        <mxCell id="wwYUsuGxup872Wy1VG4g-45" style="edgeStyle=orthogonalEdgeStyle;rounded=0;orthogonalLoop=1;jettySize=auto;html=1;exitX=0.508;exitY=0.866;exitDx=0;exitDy=0;entryX=0.5;entryY=0;entryDx=0;entryDy=0;exitPerimeter=0;" edge="1" parent="1">
          <mxGeometry relative="1" as="geometry">
            <mxPoint x="482" y="464" as="sourcePoint" />
            <mxPoint x="482" y="508" as="targetPoint" />
            <Array as="points">
              <mxPoint x="482" y="478" />
              <mxPoint x="482" y="478" />
            </Array>
          </mxGeometry>
        </mxCell>
        <mxCell id="wwYUsuGxup872Wy1VG4g-46" style="edgeStyle=orthogonalEdgeStyle;rounded=0;orthogonalLoop=1;jettySize=auto;html=1;exitX=0.508;exitY=0.866;exitDx=0;exitDy=0;entryX=0.5;entryY=0;entryDx=0;entryDy=0;exitPerimeter=0;" edge="1" parent="1">
          <mxGeometry relative="1" as="geometry">
            <mxPoint x="610" y="464" as="sourcePoint" />
            <mxPoint x="610" y="508" as="targetPoint" />
            <Array as="points">
              <mxPoint x="610" y="478" />
              <mxPoint x="610" y="478" />
            </Array>
          </mxGeometry>
        </mxCell>
        <mxCell id="wwYUsuGxup872Wy1VG4g-47" style="edgeStyle=orthogonalEdgeStyle;rounded=0;orthogonalLoop=1;jettySize=auto;html=1;exitX=0.508;exitY=0.866;exitDx=0;exitDy=0;entryX=0.5;entryY=0;entryDx=0;entryDy=0;exitPerimeter=0;" edge="1" parent="1">
          <mxGeometry relative="1" as="geometry">
            <mxPoint x="740" y="464" as="sourcePoint" />
            <mxPoint x="740" y="508" as="targetPoint" />
            <Array as="points">
              <mxPoint x="740" y="478" />
              <mxPoint x="740" y="478" />
            </Array>
          </mxGeometry>
        </mxCell>
        <mxCell id="wwYUsuGxup872Wy1VG4g-49" style="edgeStyle=orthogonalEdgeStyle;rounded=0;orthogonalLoop=1;jettySize=auto;html=1;exitX=0.923;exitY=0.855;exitDx=0;exitDy=0;entryX=0.5;entryY=0;entryDx=0;entryDy=0;exitPerimeter=0;" edge="1" parent="1">
          <mxGeometry relative="1" as="geometry">
            <mxPoint x="1130.02" y="466.54999999999995" as="sourcePoint" />
            <mxPoint x="1131" y="508" as="targetPoint" />
            <Array as="points">
              <mxPoint x="1130" y="464" />
              <mxPoint x="1131" y="464" />
            </Array>
          </mxGeometry>
        </mxCell>
        <mxCell id="wwYUsuGxup872Wy1VG4g-50" style="edgeStyle=orthogonalEdgeStyle;rounded=0;orthogonalLoop=1;jettySize=auto;html=1;exitX=0.508;exitY=0.866;exitDx=0;exitDy=0;entryX=0.5;entryY=0;entryDx=0;entryDy=0;exitPerimeter=0;" edge="1" parent="1">
          <mxGeometry relative="1" as="geometry">
            <mxPoint x="869" y="464" as="sourcePoint" />
            <mxPoint x="869" y="508" as="targetPoint" />
            <Array as="points">
              <mxPoint x="869" y="478" />
              <mxPoint x="869" y="478" />
            </Array>
          </mxGeometry>
        </mxCell>
        <mxCell id="wwYUsuGxup872Wy1VG4g-51" style="edgeStyle=orthogonalEdgeStyle;rounded=0;orthogonalLoop=1;jettySize=auto;html=1;exitX=0.508;exitY=0.866;exitDx=0;exitDy=0;entryX=0.5;entryY=0;entryDx=0;entryDy=0;exitPerimeter=0;" edge="1" parent="1">
          <mxGeometry relative="1" as="geometry">
            <mxPoint x="1000" y="464" as="sourcePoint" />
            <mxPoint x="1000" y="508" as="targetPoint" />
            <Array as="points">
              <mxPoint x="1000" y="478" />
              <mxPoint x="1000" y="478" />
            </Array>
          </mxGeometry>
        </mxCell>
        <mxCell id="wwYUsuGxup872Wy1VG4g-52" style="edgeStyle=orthogonalEdgeStyle;rounded=0;orthogonalLoop=1;jettySize=auto;html=1;exitX=0.508;exitY=0.866;exitDx=0;exitDy=0;entryX=0.5;entryY=0;entryDx=0;entryDy=0;exitPerimeter=0;" edge="1" parent="1">
          <mxGeometry relative="1" as="geometry">
            <mxPoint x="803" y="510" as="sourcePoint" />
            <mxPoint x="803" y="554" as="targetPoint" />
            <Array as="points">
              <mxPoint x="803" y="524" />
              <mxPoint x="803" y="524" />
            </Array>
          </mxGeometry>
        </mxCell>
      </root>
    </mxGraphModel>
  </diagram>
</mxfile>
